/* XPM */
static char * close_pressed_xpm[] = {
"33 43 3 1",
" 	c None",
".	c #FF7700",
"+	c #000000",
"............................     ",
"..............................   ",
"...............................  ",
"...............................  ",
"................................ ",
"................................ ",
".................................",
".................................",
".................................",
".................................",
".................................",
".................................",
".................................",
".................................",
".................................",
".................................",
".................................",
".................................",
".................................",
"............++.....++............",
"............+++...+++............",
".............+++.+++.............",
"..............+++++..............",
"...............+++...............",
"..............+++++..............",
".............+++.+++.............",
"............+++...+++............",
"............++.....++............",
".................................",
".................................",
".................................",
".................................",
".................................",
".................................",
".................................",
".................................",
".................................",
".................................",
".................................",
".................................",
".................................",
".................................",
"................................."};
