/* XPM */
static char * maximize_prelight_xpm[] = {
"33 43 2 1",
" 	c #FF7700",
".	c #000000",
"                                 ",
"                                 ",
"                                 ",
"                                 ",
"                                 ",
"                                 ",
"                                 ",
"                                 ",
"                                 ",
"                                 ",
"                                 ",
"                                 ",
"                                 ",
"                                 ",
"                                 ",
"                                 ",
"                                 ",
"                                 ",
"            .........            ",
"            .........            ",
"            ..     ..            ",
"            ..     ..            ",
"            ..     ..            ",
"            ..     ..            ",
"            ..     ..            ",
"            .........            ",
"            .........            ",
"                                 ",
"                                 ",
"                                 ",
"                                 ",
"                                 ",
"                                 ",
"                                 ",
"                                 ",
"                                 ",
"                                 ",
"                                 ",
"                                 ",
"                                 ",
"                                 ",
"                                 ",
"                                 "};
