/* XPM */
static char * top_right_inactive_xpm[] = {
"12 43 2 1",
" 	c None",
".	c #FF7700",
".....       ",
".......     ",
".........   ",
"..........  ",
"..........  ",
"........... ",
"........... ",
"............",
"............",
"............",
"............",
"............",
"............",
"............",
"............",
"............",
"............",
"............",
"............",
"............",
"............",
"............",
"............",
"............",
"............",
"............",
"............",
"............",
"............",
"............",
"............",
"............",
"............",
"............",
"............",
"............",
"............",
"............",
"............",
"............",
"............",
"............",
"............"};
